<svg xmlns="http://www.w3.org/2000/svg" width="720" height="1040" viewBox="0 0 720 1040"><rect width="720" height="1040" rx="28" fill="#f5effb"/><style>text{font-family:Arial,sans-serif;fill:#352343}.small{font-size:21px}.label{font-size:25px;font-weight:600}</style><text x="36" y="49" class="small" fill="#a52e39">VPRO · MINH HỌA THAO TÁC R29</text><text x="36" y="99" font-size="30" font-weight="bold">Dừng theo thời gian tại từng điểm</text><rect x="36" y="129" width="648" height="715" rx="26" fill="#faf7fd" stroke="#cdb5df" stroke-width="2"/><rect x="54" y="147" width="612" height="81" rx="18" fill="#382344"/><text x="294" y="200" font-size="36" font-weight="bold" fill="#ffffff" style="fill:white">VPro</text><g stroke="#e3d9eb" stroke-width="18" fill="none"><path d="M78 316L630 316M78 459L630 459M78 605L630 605M150 248V684M331 248V684M528 248V684"/></g><path d="M150 604V460H331V315H528V460" fill="none" stroke="#b63232" stroke-width="9" stroke-linejoin="round"/><g fill="#b63232"><circle cx="150" cy="604" r="19"/><circle cx="331" cy="460" r="19"/><circle cx="331" cy="315" r="19"/><circle cx="528" cy="460" r="19"/></g><g font-size="23" font-weight="bold" style="fill:white"><text x="142" y="612" style="fill:white">A</text><text x="323" y="468" style="fill:white">B</text><text x="322" y="323" style="fill:white">C</text><text x="519" y="468" style="fill:white">D</text></g><rect x="71" y="698" width="578" height="120" rx="18" fill="#eee2f7" stroke="#cdb5df"/><text x="360" y="735" class="label" text-anchor="middle">Dừng tại B · 00:30</text><rect x="86" y="754" width="122" height="45" rx="10" fill="#f9f5fc"/><text x="147" y="785" class="label" text-anchor="middle">−10</text><text x="360" y="785" class="label" text-anchor="middle">Tốc độ ▾</text><rect x="512" y="754" width="122" height="45" rx="10" fill="#f9f5fc"/><text x="573" y="785" class="label" text-anchor="middle">+10</text><text x="36" y="891" class="small">Đến B → đứng yên 30 giây → tự đi tiếp đến C.</text><text x="36" y="925" class="small"></text><text x="36" y="998" class="small" style="fill:#755c85">Hình mô phỏng cách dùng, không phải dữ liệu GPS thực.</text></svg>